<svg id="Camada_1" data-name="Camada 1" xmlns="http://www.w3.org/2000/svg" viewBox="0 0 47.85 50"><title>icons04</title><path d="M48.74,43c0,1.72,0,3.44,0,5.16,0,1.29-.51,1.89-1.84,1.88-3.5,0-7,0-10.51,0a1.64,1.64,0,0,1-1.9-1.87c0-3.44,0-6.89,0-10.33,0-1.37.69-1.91,2.06-1.89,3.38.05,6.77.06,10.16,0,1.48,0,2.09.58,2,2C48.7,39.62,48.74,41.28,48.74,43Z" transform="translate(-0.91 0)"/><path d="M41.72,0h5.34a1.46,1.46,0,0,1,1.68,1.67q0,5.34,0,10.68c0,1.26-.64,1.71-1.83,1.71-3.5,0-7,0-10.51,0a1.63,1.63,0,0,1-1.9-1.86c0-3.45,0-6.89,0-10.33C34.5.51,35.19,0,36.56,0,38.28.06,40,0,41.72,0Z" transform="translate(-0.91 0)"/><path d="M15.26,7.22c0,1.73,0,3.45,0,5.17a1.46,1.46,0,0,1-1.68,1.68c-3.62,0-7.23,0-10.85,0A1.5,1.5,0,0,1,1,12.37Q1,7,1,1.69C1.05.48,1.72,0,2.92,0Q8.18.06,13.43,0c1.33,0,1.87.59,1.84,1.88,0,1.77,0,3.55,0,5.33Z" transform="translate(-0.91 0)"/><path d="M24.92,14.07c-1.72,0-3.45,0-5.17,0-1.27,0-1.93-.46-1.92-1.8q0-5.25,0-10.51C17.83.55,18.38,0,19.61,0c3.56,0,7.12,0,10.68,0,1.26,0,1.77.64,1.78,1.79q0,5.27,0,10.51c0,1.3-.71,1.81-2,1.77C28.36,14,26.64,14.07,24.92,14.07Z" transform="translate(-0.91 0)"/><path d="M8.1,18c1.73,0,3.45,0,5.17,0,1.21,0,1.87.49,1.88,1.69q0,5.34,0,10.67c0,1.2-.66,1.71-1.88,1.7Q8,32,2.77,32C1.45,32,.9,31.46.91,30.17c0-3.45,0-6.89,0-10.34,0-1.29.53-1.9,1.86-1.86C4.54,18,6.32,18,8.1,18Z" transform="translate(-0.91 0)"/><path d="M24.86,32c-1.78,0-3.56,0-5.34,0a1.46,1.46,0,0,1-1.68-1.67c0-3.56,0-7.12,0-10.68,0-1.26.65-1.71,1.84-1.7,3.5,0,7,0,10.5,0,1.34,0,1.9.62,1.9,1.86q0,5.17,0,10.33c0,1.38-.68,1.94-2.06,1.89-1.72-.07-3.44,0-5.16,0Z" transform="translate(-0.91 0)"/><path d="M41.73,32c-1.78,0-3.56,0-5.34,0-1.22,0-1.86-.5-1.87-1.7q0-5.34,0-10.67c0-1.21.67-1.71,1.88-1.69q5.25,0,10.5,0c1.33,0,1.86.57,1.85,1.87,0,3.44,0,6.88,0,10.33,0,1.3-.54,1.89-1.86,1.86C45.17,32,43.45,32,41.73,32Z" transform="translate(-0.91 0)"/><path d="M8.11,35.93c1.73,0,3.45,0,5.17,0,1.22,0,1.86.51,1.87,1.71,0,3.56,0,7.11,0,10.67,0,1.21-.67,1.71-1.88,1.69q-5.25,0-10.5,0C1.43,50,.9,49.4.91,48.11c0-3.44,0-6.89,0-10.33,0-1.3.55-1.89,1.87-1.86C4.56,36,6.34,35.93,8.11,35.93Z" transform="translate(-0.91 0)"/><path d="M25,35.93c1.72,0,3.45,0,5.17,0,1.22,0,1.85.51,1.86,1.71q0,5.34,0,10.67c0,1.22-.68,1.7-1.89,1.69q-5.25,0-10.5,0c-1.33,0-1.85-.59-1.84-1.88,0-3.44,0-6.89,0-10.33,0-1.3.55-1.89,1.86-1.86C21.47,36,23.25,35.93,25,35.93Z" transform="translate(-0.91 0)"/></svg>