<svg id="Camada_1" data-name="Camada 1" xmlns="http://www.w3.org/2000/svg" viewBox="0 0 46.05 50"><title>icons01</title><path d="M19.13,50H4.5A5.35,5.35,0,0,1,3,49.82a1.49,1.49,0,0,1-1.12-1.76,1.45,1.45,0,0,1,1.43-1.35H3.4c2.7-.27,2.7-.27,2.7-3V4.17C6.1,1.09,7.17,0,10.22,0H28c3.16,0,4.29,1.15,4.3,4.36,0,4.25,0,8.51,0,12.76,0,1.12.26,1.68,1.45,2,3.09.8,4.48,2.71,4.64,5.91s.3,6.58.55,9.87A2.9,2.9,0,0,0,42,37.78c1.68-.15,2.69-1.35,2.59-3.32-.37-7.58-.66-15.17-1.25-22.74C43,7.83,41.6,4.27,38.22,1.85c-.41-.29-.79-.64-.47-1.18S38.58.31,39,.51a14.12,14.12,0,0,1,8.14,9.61,1.65,1.65,0,0,1,0,1.12c-1.46,2.52-.43,5.17-.32,7.73.22,5.24.76,10.47,1,15.72a6.14,6.14,0,0,1-12.23,1c-.38-3.37-.39-6.77-.57-10.15-.05-1.11-.07-2.23-1.17-2.92s-1.57-.42-1.57.86c0,3.21,0,6.41,0,9.61,0,4,0,8,0,12,0,1.18.36,1.61,1.56,1.58,1.9-.06,2.71.48,2.72,1.56S35.64,50,33.75,50ZM9.41,34.32c0,3.62,0,7.25,0,10.88,0,1.07.27,1.53,1.45,1.52q8.24-.09,16.47,0c1.22,0,1.55-.43,1.55-1.58q0-10.82,0-21.63c0-1.15-.34-1.6-1.55-1.59q-8.16.09-16.33,0c-1.3,0-1.62.45-1.6,1.67C9.46,27.15,9.41,30.74,9.41,34.32Zm9.83-31c-2.81,0-5.63,0-8.45,0-.93,0-1.4.23-1.39,1.27q.06,6.38,0,12.75c0,1,.39,1.33,1.36,1.33,5.54,0,11.07,0,16.61,0,1.13,0,1.51-.41,1.5-1.51,0-4.1-.05-8.21,0-12.32,0-1.21-.45-1.56-1.61-1.53C24.59,3.35,21.92,3.3,19.24,3.3Z" transform="translate(-1.81 0)"/></svg>