<svg id="Camada_1" data-name="Camada 1" xmlns="http://www.w3.org/2000/svg" viewBox="0 0 50 45.85"><title>icons07</title><path d="M48.76,22.63a2.52,2.52,0,0,1-.06,1c-1,1.87-.1,3.51.59,5.17a4.81,4.81,0,0,1,.17,4,6.45,6.45,0,0,0-.33,3.92c.7,4.52-1.05,7.05-5.52,7.61-7.34.91-14.7,1.69-22,2.55-2.18.26-4.37.52-6.53.89a5.31,5.31,0,0,1-4.89-1.4c-2.95-2.86-5.88-5.75-8.72-8.72C-.86,35.32-.64,32,1.86,29.48c4.82-4.85,9.67-9.67,14.5-14.51L27.12,4.22c2.88-2.86,6-2.86,8.92,0,2.51,2.49,5,5,7.51,7.5a6.52,6.52,0,0,1,2,3.72c.21,1.4,1.25,2.34,1.95,3.45A6.28,6.28,0,0,1,48.76,22.63ZM3.06,33.94a2.67,2.67,0,0,0,1,2.13c2.54,2.52,5.05,5.08,7.61,7.59,1.59,1.56,2.86,1.54,4.45,0Q28.74,31,41.34,18.37c1.5-1.5,1.51-2.73,0-4.21-2.59-2.61-5.19-5.22-7.81-7.8-1.43-1.41-2.66-1.45-4.1,0Q16.67,19.09,3.92,31.88A2.58,2.58,0,0,0,3.06,33.94ZM23.4,43.36l.08.16c6.44-.74,12.87-1.51,19.31-2.21,2.73-.29,3.42-1.06,3.25-3.74-.07-1.11-.48-1.11-1.35-.82-2,.66-4,1.24-6,1.86Zm6.37-9,.17.2c4.82-3.26,9.66-6.5,14.46-9.79,1.58-1.08,1.68-2.66.47-4.21-.45-.58-.77-.54-1.24-.07ZM32.07,37l.17.34c4-1.26,8.1-2.49,12.13-3.77,2.33-.74,2.93-3.16,1.36-5.07-.37-.44-.66-.25-1,0Z" transform="translate(0.16 -2.07)"/><path d="M28.23,28.8a2,2,0,0,1-1.68-.74c-2.29-2.29-4.6-4.57-6.87-6.89-1.09-1.11-1.08-1.82,0-2.94S21.82,16.06,22.9,15a1.75,1.75,0,0,1,2.76,0c2.41,2.38,4.79,4.78,7.18,7.17a1.47,1.47,0,0,1,.24,2.18c-1.32,1.43-2.73,2.79-4.13,4.15A1.6,1.6,0,0,1,28.23,28.8ZM24.41,18.27A2.73,2.73,0,0,0,23,19.45c-.32.43.14.68.39.93,1.27,1.29,2.58,2.53,3.81,3.85.66.7,1.1.62,1.74,0s.63-1,0-1.63c-1.28-1.21-2.49-2.48-3.74-3.72A8.07,8.07,0,0,0,24.41,18.27Z" transform="translate(0.16 -2.07)"/><path d="M31.35,7.29A2.13,2.13,0,0,1,32.74,8l7.1,7.1a1.66,1.66,0,0,1,0,2.63l-3.45,3.44a1.71,1.71,0,0,1-2.74-.05c-2.29-2.3-4.62-4.58-6.89-6.9-1.11-1.13-1.12-1.85-.07-3S28.88,9.05,30,8A2,2,0,0,1,31.35,7.29Zm5.1,9a5.11,5.11,0,0,0-.5-.65C34.65,14.28,33.31,13,32,11.66c-.64-.67-1-.35-1.52.15s-.87.87-.19,1.52c1.37,1.31,2.69,2.68,4,4,.26.25.52.69.94.35A2.43,2.43,0,0,0,36.45,16.25Z" transform="translate(0.16 -2.07)"/><path d="M26.35,30.44a1.72,1.72,0,0,1-.64,1.38c-1.12,1.12-2.23,2.24-3.35,3.35a1.71,1.71,0,0,1-2.74,0l-7.1-7.11a1.68,1.68,0,0,1,0-2.64q1.69-1.76,3.44-3.45a1.71,1.71,0,0,1,2.66,0c2.42,2.38,4.81,4.79,7.21,7.2A1.64,1.64,0,0,1,26.35,30.44Zm-9-5.17a3.68,3.68,0,0,0-1.28,1.1c-.41.47,0,.79.27,1.09,1.32,1.33,2.65,2.63,3.95,4,.51.53.91.59,1.41,0s1.06-.91.31-1.65c-1.4-1.37-2.77-2.77-4.16-4.15A5,5,0,0,0,17.33,25.27Z" transform="translate(0.16 -2.07)"/><path d="M12.29,32.09A3.68,3.68,0,0,1,16,36,3.81,3.81,0,1,1,8.4,35.8,3.7,3.7,0,0,1,12.29,32.09Z" transform="translate(0.16 -2.07)"/></svg>