<svg id="Camada_1" data-name="Camada 1" xmlns="http://www.w3.org/2000/svg" viewBox="0 0 35.32 50"><title>icons02</title><path d="M42.49,16.86c0,3.26,0,6.52,0,9.78,0,1.72-.36,2.11-2.11,2.13-3.36,0-6.71.05-10.07,0-1.3,0-1.77.41-1.76,1.74.05,5.55,0,11.11,0,16.67a11.2,11.2,0,0,1-.19,2,1,1,0,0,1-1,.82,1,1,0,0,1-1.08-1,9.85,9.85,0,0,1-.06-1.44c0-5.7,0-11.41,0-17.11,0-1.33-.4-1.77-1.72-1.73-2.77.07-5.56.06-8.33,0-1.25,0-1.69.41-1.68,1.66,0,5.66,0,11.31,0,17a8.9,8.9,0,0,1-.14,1.71A1.1,1.1,0,0,1,12.18,49a11.78,11.78,0,0,1-.06-1.57q0-16.68,0-33.36a2,2,0,0,0-1.39-2.26A6.09,6.09,0,0,1,7.32,4.88,6.3,6.3,0,0,1,13.18,0a6.3,6.3,0,0,1,6.09,5,6,6,0,0,1-3.35,6.78A2,2,0,0,0,14.49,14q.09,5.32,0,10.64c0,1.26.28,1.82,1.68,1.77,2.83-.1,5.66-.07,8.48,0,1.19,0,1.58-.35,1.57-1.55,0-5.8,0-11.6,0-17.4a11.05,11.05,0,0,1,0-1.29,1,1,0,0,1,1-1,1,1,0,0,1,1.11.91,15.46,15.46,0,0,1,.18,2.15c0,5.46,0,10.93,0,16.39,0,1.38.42,1.85,1.81,1.8,2.72-.09,5.46-.1,8.19,0,1.44.06,1.76-.48,1.75-1.82-.07-5.7,0-11.41,0-17.11,0-.43,0-.86,0-1.29a1.07,1.07,0,0,1,2.14,0c.06,1,0,2,0,3C42.5,11.78,42.49,14.32,42.49,16.86ZM17.06,6.26a3.8,3.8,0,0,0-3.82-3.83,4,4,0,0,0-3.81,3.9,3.92,3.92,0,0,0,4,3.69A3.58,3.58,0,0,0,17.06,6.26Z" transform="translate(-7.18 0)"/></svg>