<svg id="Camada_1" data-name="Camada 1" xmlns="http://www.w3.org/2000/svg" viewBox="0 0 47.8 50"><title>icons05</title><path d="M7.88,14.05c-1.79,0-3.57,0-5.35,0A1.38,1.38,0,0,1,1,12.48c0-3.68,0-7.36,0-11C1,.42,1.49,0,2.46,0h11C14.6,0,15,.59,15,1.63c0,3.56,0,7.13,0,10.69,0,1.25-.56,1.76-1.78,1.74-1.78,0-3.56,0-5.34,0Z" transform="translate(-0.94 0)"/><path d="M8.11,50c-1.84,0-3.68,0-5.52,0-1.16,0-1.66-.5-1.65-1.66Q1,43,.94,37.64c0-1.26.6-1.72,1.8-1.71,3.51,0,7,0,10.52,0,1.24,0,1.75.55,1.75,1.78,0,3.5,0,7,0,10.51,0,1.23-.46,1.81-1.73,1.77C11.56,50,9.83,50,8.11,50Z" transform="translate(-0.94 0)"/><path d="M7.87,32H2.53A1.38,1.38,0,0,1,1,30.45Q1,25,.94,19.59c0-1.18.58-1.63,1.7-1.63,3.56,0,7.13,0,10.69,0,1.15,0,1.67.5,1.67,1.66Q15,25,15,30.31c0,1.26-.58,1.74-1.79,1.72-1.78,0-3.56,0-5.34,0Z" transform="translate(-0.94 0)"/><path d="M33.76,5.07H20.64c-.84,0-2,.13-1.91-1.13,0-1.06,1.05-1.08,1.85-1.08H47c.82,0,1.78.07,1.73,1.18s-1.06,1-1.85,1Z" transform="translate(-0.94 0)"/><path d="M33.88,41H20.59c-.79,0-1.84.13-1.87-1s1.07-1.19,1.92-1.19q13.11,0,26.23,0c.85,0,1.94,0,1.86,1.25s-1.14.92-1.91.93Z" transform="translate(-0.94 0)"/><path d="M33.71,23H20.6c-.79,0-1.84.12-1.88-1s1.05-1.2,1.9-1.2q13.11,0,26.23,0c.85,0,1.94,0,1.87,1.23s-1.11,1-1.9,1Z" transform="translate(-0.94 0)"/><path d="M27.84,9h7.23c.75,0,1.66-.05,1.71,1s-.9,1.21-1.71,1.21q-7.32,0-14.63,0c-.81,0-1.79-.1-1.73-1.2s1-1,1.73-1Z" transform="translate(-0.94 0)"/><path d="M27.85,27h7.23c.75,0,1.66,0,1.7,1s-.9,1.21-1.71,1.21q-7.32,0-14.64,0c-.81,0-1.78-.11-1.72-1.21s1-1,1.73-1Z" transform="translate(-0.94 0)"/><path d="M27.79,47.13c-2.41,0-4.83,0-7.24,0-.8,0-1.79,0-1.83-1.11s1-1.1,1.77-1.1q7.32,0,14.64,0c.76,0,1.63,0,1.66,1s-.83,1.15-1.6,1.16C32.73,47.15,30.26,47.13,27.79,47.13Z" transform="translate(-0.94 0)"/></svg>