<svg id="Camada_1" data-name="Camada 1" xmlns="http://www.w3.org/2000/svg" viewBox="0 0 50 45.96"><title>icons03</title><path d="M7,44.28a18.4,18.4,0,0,1-5.43-8.14,25,25,0,1,1,43,6.27,4.88,4.88,0,0,1-1.82,1.71c.11-1.27.15-2.38.31-3.48.13-.85.09-1.52-.81-1.89s-1-.9-.46-1.68.74-1.59,1.82-.79c.89.65,1.34.24,1.69-.64A25.58,25.58,0,0,0,46.85,30c.14-.88,0-1.56-1.11-1.48s-1.15-.56-1.16-1.39.1-1.55,1.18-1.52,1.24-.53,1.1-1.39a25,25,0,0,0-1.63-5.94c-.36-.87-.81-1-1.51-.46s-1.33.35-1.79-.51-.66-1.49.42-2c.89-.38.77-.91.26-1.56A23.79,23.79,0,0,0,38.16,9.3c-.63-.49-1.15-.7-1.55.23s-.88,1.11-1.79.56-1.42-1-.67-2c.45-.6.29-1-.39-1.35A23.29,23.29,0,0,0,27.27,5c-.84-.11-1,.44-.94,1.07,0,1-.48,1.35-1.41,1.35s-1.61-.24-1.55-1.36c0-.75-.22-1.18-1.09-1a25.59,25.59,0,0,0-6.09,1.62c-.83.35-1.18.77-.57,1.6.73,1,0,1.39-.75,1.86s-1.34.43-1.71-.45-.89-.93-1.63-.34a24.78,24.78,0,0,0-4.45,4.47c-.51.66-.59,1.18.28,1.56,1.08.47.85,1.13.41,2s-1,1.1-1.8.49-1.15-.37-1.5.48A25.68,25.68,0,0,0,2.83,24.2C2.7,25.07,3,25.6,4,25.58s1.18.68,1.17,1.53-.18,1.44-1.18,1.38S2.7,29,2.83,29.83a26.05,26.05,0,0,0,1.55,5.82c.36.89.82,1.27,1.7.62,1.09-.79,1.36.17,1.81.81s.39,1.33-.47,1.68a1.37,1.37,0,0,0-.82,1.75c.2,1.22.31,2.46.46,3.69Z" transform="translate(0.16 -2.02)"/><path d="M32.5,9c-.47,2-.93,4.07-1.4,6.1-.56,2.42-1.11,4.84-1.71,7.25a2.72,2.72,0,0,0,.43,2.41,6.06,6.06,0,0,1-2,8.89,6.16,6.16,0,0,1-8.51-2.83A6.05,6.05,0,0,1,23,22.44a3.4,3.4,0,0,0,2-1.68c2.15-3.67,4.33-7.32,6.5-11,.19-.32.4-.63.6-.94Z" transform="translate(0.16 -2.02)"/><path d="M7.06,44.2c1.34.2,2.21.09,2.28-1.73a4.18,4.18,0,0,1,4.28-3.72q11.21-.11,22.42,0a4.56,4.56,0,0,1,.48,9.07,7.85,7.85,0,0,1-1.28.15c-7,0-13.89,0-20.84,0a4.82,4.82,0,0,1-4.74-2.65c-.59-1.22-1.84-.52-2.66-1Zm17.68,1.48H35.5A2.52,2.52,0,0,0,38,44.42c.87-1.71-.4-3.52-2.54-3.53q-10.55,0-21.09,0c-1.93,0-3,.94-3,2.49s1,2.28,3,2.29C17.86,45.69,21.3,45.68,24.74,45.68Z" transform="translate(0.16 -2.02)"/></svg>