<svg id="Camada_1" data-name="Camada 1" xmlns="http://www.w3.org/2000/svg" viewBox="0 0 50 28.94"><title>icons08</title><path d="M24.91,39.93H5.76c-4,0-5.75-1.75-5.76-5.81q0-8.17,0-16.37c0-3.44,1.72-5.22,5.2-5.36A6.26,6.26,0,0,0,8,11.7a6.23,6.23,0,0,1,5.83.05,5.44,5.44,0,0,0,2.49.63c5.78,0,11.57,0,17.35,0A4.84,4.84,0,0,0,36,11.82a6.28,6.28,0,0,1,6.26,0,5.32,5.32,0,0,0,2.52.52c3.47.17,5.18,1.93,5.19,5.38q0,8.43,0,16.86c0,3.4-1.84,5.28-5.27,5.3C38.12,40,31.52,39.93,24.91,39.93ZM25,20c-7,0-14.08,0-21.12,0-1.35,0-1.81.4-1.79,1.77.07,4.2,0,8.4,0,12.6,0,2.47.75,3.24,3.23,3.24q19.65,0,39.29,0c2.38,0,3.14-.79,3.15-3.15,0-4.2,0-8.41,0-12.61C47.9,20.41,47.43,20,46,20,39,20.07,32,20,25,20Z" transform="translate(0 -11)"/><path d="M12.88,31.81H11.64a.55.55,0,0,1-.34-.1.45.45,0,0,1-.18-.25l-.41-1.19H8.1l-.4,1.19a.61.61,0,0,1-.19.24.52.52,0,0,1-.33.11H5.93l2.66-6.87h1.63ZM8.47,29.18h1.87L9.71,27.3c0-.12-.09-.26-.14-.42s-.11-.34-.16-.52c-.05.19-.11.36-.16.53s-.1.3-.15.42Z" transform="translate(0 -11)"/><path d="M19.83,31.81H18.59a.54.54,0,0,1-.53-.35l-.4-1.19H15.05l-.41,1.19a.51.51,0,0,1-.18.24.53.53,0,0,1-.34.11H12.88l2.66-6.87h1.63Zm-4.42-2.63h1.88l-.63-1.88-.15-.42c-.05-.16-.1-.34-.16-.52-.05.19-.1.36-.15.53l-.15.42Z" transform="translate(0 -11)"/><path d="M26.77,31.81H25.54a.51.51,0,0,1-.34-.1.47.47,0,0,1-.19-.25l-.41-1.19H22l-.4,1.19a.47.47,0,0,1-.19.24.52.52,0,0,1-.33.11H19.83l2.65-6.87h1.63Zm-4.41-2.63h1.88L23.6,27.3c0-.12-.08-.26-.14-.42s-.11-.34-.16-.52c-.05.19-.1.36-.16.53s-.1.3-.15.42Z" transform="translate(0 -11)"/><path d="M29.77,30.75h1.32V27.29c0-.17,0-.35,0-.53l-.78.64a.6.6,0,0,1-.15.09.36.36,0,0,1-.14,0,.4.4,0,0,1-.22-.05.47.47,0,0,1-.15-.12l-.46-.61,2.14-1.79h1.21v5.81h1.13v1.06H29.77Z" transform="translate(0 -11)"/><path d="M35.23,30.75h1.32V27.29c0-.17,0-.35,0-.53l-.78.64a.6.6,0,0,1-.15.09.39.39,0,0,1-.15,0,.43.43,0,0,1-.36-.17l-.46-.61,2.14-1.79H38v5.81h1.13v1.06H35.23Z" transform="translate(0 -11)"/><path d="M40.7,30.75H42V27.29c0-.17,0-.35,0-.53l-.77.64a.6.6,0,0,1-.15.09.39.39,0,0,1-.15,0,.43.43,0,0,1-.36-.17l-.46-.61,2.13-1.79h1.21v5.81h1.13v1.06H40.7Z" transform="translate(0 -11)"/></svg>