<svg id="Camada_1" data-name="Camada 1" xmlns="http://www.w3.org/2000/svg" viewBox="0 0 50 48.68"><title>icons06</title><path d="M24.82,18.8c7.21,0,14.42,0,21.63,0,1.44,0,1.94-.38,1.88-1.85-.11-2.62,0-5.25,0-7.88S47,5.23,44.4,5.19c-.86,0-1.72,0-2.58-.05-.45,0-.88-.21-.86-.75s.42-.64.81-.67c4-.38,8.11.33,8.07,6.22-.08,11.08,0,22.16,0,33.24,0,4.18-2,6.15-6.13,6.15H6c-4.18,0-6.15-2-6.15-6.13q0-16.77,0-33.53A6,6,0,0,1,8,3.74c.38.12.74.28.68.77a.68.68,0,0,1-.7.6c-1,.06-1.91.06-2.86.08A3.46,3.46,0,0,0,1.37,8.94c0,2.72,0,5.44,0,8.16,0,1.3.37,1.74,1.71,1.73C10.3,18.77,17.56,18.8,24.82,18.8Zm.08,1.5q-10.81,0-21.63,0c-1.87,0-1.91,0-1.91,1.94q0,10.68,0,21.35c0,3,1.21,4.23,4.27,4.23H44c3.07,0,4.27-1.2,4.27-4.23q0-10.68,0-21.35c0-1.9,0-1.94-1.91-1.94Q35.65,20.28,24.9,20.3Z" transform="translate(0.16 -0.66)"/><path d="M37.2,15.84a3.88,3.88,0,0,1-3.75-2.77,3.71,3.71,0,0,1,1.82-4.41,2.06,2.06,0,0,0,1.26-2.24c-.07-1.53,0-3,0-4.58,0-.53,0-1.19.72-1.18s.73.68.74,1.19C38,3.42,38,5,38,6.57a1.94,1.94,0,0,0,1.16,2A3.71,3.71,0,0,1,41,13,3.77,3.77,0,0,1,37.2,15.84Zm2.47-4A2.38,2.38,0,0,0,37.19,9.5a2.53,2.53,0,0,0-2.49,2.57,2.59,2.59,0,0,0,2.53,2.41A2.48,2.48,0,0,0,39.67,11.88Z" transform="translate(0.16 -0.66)"/><path d="M16.33,12a3.85,3.85,0,0,1-3,3.83,3.92,3.92,0,0,1-4.46-2.31,3.63,3.63,0,0,1,1.52-4.72c1.42-.66,1.51-1.59,1.47-2.84s0-2.77,0-4.15c0-.47,0-1.07.63-1.08s.68.57.68,1.05c0,1.67,0,3.34,0,5a1.61,1.61,0,0,0,1.07,1.77A3.53,3.53,0,0,1,16.33,12ZM15,12A2.51,2.51,0,0,0,12.58,9.5a2.49,2.49,0,0,0-.22,5A2.54,2.54,0,0,0,15,12Z" transform="translate(0.16 -0.66)"/><path d="M24.76,5.18c-2.34,0-4.68,0-7,0-.59,0-1.44.14-1.48-.7s.81-.79,1.4-.79q7.16,0,14.31,0c.59,0,1.44-.08,1.41.78s-.89.71-1.48.71C29.53,5.19,27.14,5.18,24.76,5.18Z" transform="translate(0.16 -0.66)"/></svg>